<svg xmlns="http://www.w3.org/2000/svg" viewBox="0 0 512 512">
  <defs>
    <linearGradient id="bg" x1="0" x2="0" y1="0" y2="1">
      <stop offset="0%" stop-color="#0c1520" />
      <stop offset="55%" stop-color="#153036" />
      <stop offset="100%" stop-color="#0b1510" />
    </linearGradient>
    <linearGradient id="snake" x1="0" x2="1" y1="0" y2="1">
      <stop offset="0%" stop-color="#dccd88" />
      <stop offset="100%" stop-color="#6da44a" />
    </linearGradient>
  </defs>

  <rect width="512" height="512" rx="112" fill="url(#bg)" />
  <path
    d="M0 390c52-66 101-93 152-112 62-24 107-84 152-133 35-38 76-67 121-92v247H0z"
    fill="#102016"
    opacity="0.82"
  />
  <path
    d="M40 372c54-12 95-31 133-59 39-29 70-74 105-102 30-24 67-43 111-59v88c-42 18-73 39-99 70-34 40-69 89-120 118-31 18-72 32-126 41z"
    fill="#5a8aa1"
    opacity="0.38"
  />
  <path
    d="M117 143c26-32 71-52 124-52 84 0 152 47 152 105 0 35-24 67-62 87-16 8-33 15-53 19-11 3-16 16-8 25 18 22 31 46 31 73 0 60-59 109-132 109-58 0-107-31-126-75"
    fill="none"
    stroke="url(#snake)"
    stroke-linecap="round"
    stroke-linejoin="round"
    stroke-width="40"
  />
  <circle cx="114" cy="142" r="28" fill="#dccd88" />
  <circle cx="123" cy="136" r="6" fill="#0c1520" />
</svg>
